
<svg width="1222" height="1209" viewBox="0 0 1222 1209" fill="none" xmlns="http://www.w3.org/2000/svg">
  <g filter="url(#filter0_f_135_146)">
    <path d="M-328.435 390.722C-256.585 349.178 -167.429 325.942 -106.195 322.143C-63.8463 319.515 -23.1181 324.705 -2.47235 342.286C17.2672 359.095 26.1472 383.8 38.4924 405.151C47.926 421.467 53.9599 438.391 57.717 457.729C61.354 476.447 70.9914 491.966 75.4646 510.272C95.7975 593.481 127.27 707.544 293.082 679.497C338.825 671.76 381.877 673.086 419.987 675.029C471.693 677.665 527.383 677.493 576.835 682.431C611.06 685.848 643.685 693.155 668.936 704.744C690.529 714.654 701.885 728.115 712.112 745.803C723.748 765.928 735.384 786.053 747.021 806.178C755.406 820.68 755.565 834.351 782.723 833.471C840.797 831.591 908.571 838.765 898.956 887.437" stroke="url(#paint0_linear_135_146)" stroke-opacity="0.25" stroke-width="205" stroke-linecap="round" />
  </g>
  <defs>
    <filter id="filter0_f_135_146" x="-649.953" y="0" width="1871.31" height="1208.96" filterUnits="userSpaceOnUse" color-interpolation-filters="sRGB">
      <feFlood flood-opacity="0" result="BackgroundImageFix" />
      <feBlend mode="normal" in="SourceGraphic" in2="BackgroundImageFix" result="shape" />
      <feGaussianBlur stdDeviation="109.5" result="effect1_foregroundBlur_135_146" />
    </filter>
    <linearGradient id="paint0_linear_135_146" x1="-421.779" y1="215.714" x2="335.631" y2="1126.49" gradientUnits="userSpaceOnUse">
      <stop stop-color="#00C5EB" />
      <stop offset="0.447917" stop-color="#3D99F1" stop-opacity="0.62" />
      <stop offset="1" stop-color="#B544FE" />
    </linearGradient>
  </defs>
</svg>