<svg width="9" height="12" viewBox="0 0 9 12" fill="none" xmlns="http://www.w3.org/2000/svg">
  <path d="M0.312667 11.6C0.40703 11.6491 0.512978 11.6715 0.61914 11.6649C0.725301 11.6584 0.827667 11.623 0.91525 11.5626L8.49858 6.31264C8.57607 6.25895 8.6394 6.18729 8.68313 6.10378C8.72687 6.02027 8.74972 5.9274 8.74972 5.83314C8.74972 5.73887 8.72687 5.646 8.68313 5.56249C8.6394 5.47899 8.57607 5.40732 8.49858 5.35364L0.91525 0.103637C0.827735 0.0430823 0.725322 0.00762286 0.6191 0.0010977C0.512878 -0.00542746 0.406894 0.0172304 0.312626 0.0666178C0.218357 0.116005 0.139395 0.19024 0.0842899 0.281285C0.0291847 0.37233 3.59236e-05 0.476714 7.92348e-09 0.583137V11.0831C-1.75393e-05 11.1896 0.0291101 11.2941 0.0842259 11.3852C0.139342 11.4763 0.218343 11.5506 0.312667 11.6Z" fill="white" />
</svg>