<svg aria-hidden="true" style="position: absolute; width: 0; height: 0; overflow: hidden;" version="1.1" xmlns="http://www.w3.org/2000/svg" xmlns:xlink="http://www.w3.org/1999/xlink">
<defs>
<symbol id="icon-apple" viewBox="0 0 32 32">
<path d="M16.203 9.195c-1.264 0-3.22-1.437-5.28-1.387-2.72 0.036-5.213 1.577-6.615 4.019-2.823 4.9-0.728 12.137 2.025 16.12 1.351 1.939 2.944 4.12 5.056 4.052 2.027-0.087 2.787-1.316 5.247-1.316 2.441 0 3.133 1.316 5.28 1.264 2.183-0.035 3.568-1.973 4.901-3.931 1.541-2.251 2.181-4.433 2.216-4.553-0.052-0.017-4.243-1.628-4.293-6.476-0.035-4.053 3.307-5.992 3.463-6.079-1.905-2.787-4.831-3.099-5.853-3.168-2.667-0.208-4.9 1.453-6.147 1.453zM20.707 5.107c1.124-1.349 1.867-3.236 1.66-5.107-1.609 0.069-3.549 1.073-4.709 2.424-1.040 1.195-1.939 3.117-1.697 4.952 1.784 0.139 3.62-0.917 4.745-2.268z"></path>
</symbol>
<symbol id="icon-file-download" viewBox="0 0 24 32">
<path d="M14.088 8.425v-8.425h-12.579c-0.836 0-1.509 0.663-1.509 1.487v28.743c0 0.824 0.673 1.487 1.509 1.487h21.132c0.836 0 1.509-0.663 1.509-1.487v-20.318h-8.553c-0.83 0-1.509-0.669-1.509-1.487zM18.896 21.518l-6.064 5.928c-0.418 0.409-1.094 0.409-1.512 0l-6.064-5.928c-0.638-0.624-0.191-1.695 0.708-1.695h4.099v-4.956c0-0.548 0.45-0.991 1.006-0.991h2.013c0.556 0 1.006 0.444 1.006 0.991v4.956h4.099c0.898 0 1.346 1.071 0.709 1.695zM23.711 6.504l-6.157-6.071c-0.283-0.279-0.667-0.434-1.069-0.434h-0.384v7.929h8.050v-0.378c0-0.39-0.157-0.768-0.44-1.047z"></path>
</symbol>
<symbol id="icon-burger" viewBox="0 0 52 32">
<path  d="M2 2h48"></path>
<path  d="M2 16h48"></path>
<path  d="M2 30h48"></path>
</symbol>
<symbol id="icon-linkedin" viewBox="0 0 32 32">
<path d="M8.268 28h-5.805v-18.694h5.805v18.694zM5.362 6.756c-1.856 0-3.362-1.538-3.362-3.394 0-0.892 0.354-1.747 0.985-2.377s1.486-0.985 2.377-0.985c0.892 0 1.747 0.354 2.377 0.985s0.985 1.486 0.985 2.377c0 1.856-1.506 3.394-3.362 3.394zM29.994 28h-5.792v-9.1c0-2.169-0.044-4.95-3.018-4.95-3.018 0-3.481 2.356-3.481 4.794v9.256h-5.799v-18.694h5.567v2.55h0.081c0.775-1.469 2.668-3.019 5.492-3.019 5.875 0 6.955 3.869 6.955 8.894v10.269h-0.005z"></path>
</symbol>
<symbol id="icon-facebook" viewBox="0 0 32 32">
<path d="M22.4 2.666h-4c-1.768 0-3.464 0.702-4.714 1.953s-1.953 2.946-1.953 4.714v4h-4v5.333h4v10.667h5.333v-10.667h4l1.333-5.333h-5.333v-4c0-0.354 0.14-0.693 0.391-0.943s0.589-0.391 0.943-0.391h4v-5.333z"></path>
</symbol>
<symbol id="icon-Group" viewBox="0 0 24 32">
<path  d="M7 18.876v-1.876h2v1.876c0 0.164 0.020 0.327 0.060 0.486l0.8 3.196-1.86 1.24-1.86-1.24 0.8-3.196c0.040-0.159 0.060-0.322 0.060-0.486z"></path>
<path  d="M14.586 0h-10.586c-1.061 0-2.078 0.421-2.828 1.172s-1.172 1.768-1.172 2.828v24c0 1.061 0.421 2.078 1.172 2.828s1.768 1.172 2.828 1.172h16c1.061 0 2.078-0.421 2.828-1.172s1.172-1.768 1.172-2.828v-18.586c-0-0.53-0.211-1.039-0.586-1.414l-7.414-7.414c-0.375-0.375-0.884-0.586-1.414-0.586v0zM15 7v-4l6 6h-4c-0.53 0-1.039-0.211-1.414-0.586s-0.586-0.884-0.586-1.414zM7 6v-2h-2v-2h3v2h2v2h-2v2h2v2h-2v2h2v2h-3v-2h-2v-2h2v-2h-2v-2h2zM7 15h2c0.53 0 1.039 0.211 1.414 0.586s0.586 0.884 0.586 1.414v1.876l0.8 3.198c0.1 0.4 0.073 0.821-0.076 1.206s-0.413 0.714-0.756 0.942l-1.86 1.24c-0.328 0.219-0.714 0.336-1.109 0.336s-0.781-0.117-1.109-0.336l-1.86-1.24c-0.343-0.229-0.607-0.558-0.755-0.943s-0.175-0.805-0.075-1.206l0.8-3.198v-1.876c0-0.53 0.211-1.039 0.586-1.414s0.884-0.586 1.414-0.586z"></path>
</symbol>
<symbol id="icon-twitter" viewBox="0 0 32 32">
<path d="M30.134 5.599c-1.184 0.835-2.495 1.474-3.882 1.892-0.744-0.856-1.734-1.463-2.835-1.738s-2.26-0.206-3.32 0.198c-1.060 0.405-1.97 1.125-2.608 2.064s-0.971 2.051-0.956 3.185v1.236c-2.173 0.056-4.326-0.426-6.267-1.403s-3.611-2.419-4.86-4.198c0 0-4.945 11.127 6.182 16.073-2.546 1.728-5.58 2.595-8.655 2.473 11.127 6.182 24.727 0 24.727-14.218-0.001-0.344-0.034-0.688-0.099-1.026 1.262-1.244 2.152-2.816 2.572-4.537z"></path>
</symbol>
<symbol id="icon-play" viewBox="0 0 24 32">
<path d="M0.834 30.933c0.252 0.131 0.534 0.191 0.817 0.173s0.556-0.112 0.79-0.273l20.222-14c0.207-0.143 0.376-0.334 0.492-0.557s0.178-0.47 0.178-0.722c0-0.251-0.061-0.499-0.178-0.722s-0.285-0.414-0.492-0.557l-20.222-14c-0.233-0.161-0.506-0.256-0.79-0.273s-0.566 0.043-0.817 0.175c-0.251 0.132-0.462 0.33-0.609 0.572s-0.225 0.521-0.225 0.805v28c-0 0.284 0.078 0.563 0.225 0.806s0.358 0.441 0.609 0.573z"></path>
</symbol>
<symbol id="icon-file" viewBox="0 0 26 32">
<path  d="M24.311 7.864c0.21 0.21 0.329 0.493 0.329 0.791v21.584c0 0.62-0.5 1.12-1.12 1.12h-22.4c-0.62 0-1.12-0.5-1.12-1.12v-29.12c0-0.62 0.5-1.12 1.12-1.12h14.864c0.297 0 0.584 0.119 0.794 0.329l7.532 7.535zM22.057 9.17l-6.587-6.587v6.587h6.587zM5.6 14.63c-0.074 0-0.146 0.029-0.198 0.082s-0.082 0.124-0.082 0.198v1.68c0 0.074 0.029 0.146 0.082 0.198s0.124 0.082 0.198 0.082h13.44c0.074 0 0.146-0.030 0.198-0.082s0.082-0.124 0.082-0.198v-1.68c0-0.074-0.030-0.145-0.082-0.198s-0.124-0.082-0.198-0.082h-13.44zM5.6 19.39c-0.074 0-0.146 0.030-0.198 0.082s-0.082 0.124-0.082 0.198v1.68c0 0.074 0.029 0.145 0.082 0.198s0.124 0.082 0.198 0.082h6.44c0.074 0 0.146-0.029 0.198-0.082s0.082-0.124 0.082-0.198v-1.68c0-0.074-0.030-0.146-0.082-0.198s-0.124-0.082-0.198-0.082h-6.44z"></path>
</symbol>
<symbol id="icon-author" viewBox="0 0 32 32">
<path  d="M27.719 25.684c1.608-1.935 2.727-4.229 3.261-6.688s0.468-5.011-0.192-7.439c-0.66-2.428-1.896-4.662-3.602-6.511s-3.833-3.261-6.2-4.115c-2.367-0.854-4.905-1.125-7.399-0.791s-4.871 1.264-6.93 2.711-3.739 3.369-4.897 5.602c-1.159 2.234-1.763 4.714-1.761 7.23 0.001 3.658 1.29 7.199 3.641 10.002l-0.022 0.019c0.078 0.094 0.168 0.175 0.249 0.268 0.101 0.115 0.209 0.224 0.314 0.336 0.314 0.34 0.636 0.668 0.974 0.974 0.103 0.094 0.209 0.181 0.314 0.271 0.358 0.309 0.727 0.603 1.109 0.876 0.049 0.034 0.094 0.077 0.143 0.112v-0.013c2.623 1.846 5.752 2.837 8.96 2.837s6.337-0.991 8.96-2.837v0.013c0.049-0.035 0.093-0.078 0.143-0.112 0.381-0.274 0.75-0.567 1.109-0.876 0.104-0.090 0.211-0.178 0.314-0.271 0.338-0.308 0.661-0.634 0.974-0.974 0.104-0.112 0.212-0.221 0.314-0.336 0.079-0.093 0.17-0.174 0.249-0.269l-0.025-0.018zM15.68 6.723c0.997 0 1.971 0.296 2.8 0.849s1.475 1.341 1.856 2.262 0.481 1.934 0.287 2.912c-0.194 0.978-0.674 1.876-1.379 2.581s-1.603 1.185-2.58 1.379-1.991 0.095-2.912-0.287c-0.921-0.381-1.708-1.027-2.262-1.856s-0.849-1.803-0.849-2.8c0-1.337 0.531-2.619 1.476-3.564s2.227-1.476 3.564-1.476zM6.728 25.684c0.019-1.471 0.617-2.874 1.664-3.908s2.458-1.613 3.929-1.614h6.72c1.471 0.001 2.882 0.58 3.929 1.614s1.644 2.437 1.664 3.908c-2.456 2.213-5.646 3.438-8.952 3.438s-6.496-1.225-8.952-3.438z"></path>
</symbol>
<symbol id="icon-date" viewBox="0 0 28 32">
<path  d="M28 28v-21.778c0-1.716-1.395-3.111-3.111-3.111h-3.111v-3.111h-3.111v3.111h-9.333v-3.111h-3.111v3.111h-3.111c-1.716 0-3.111 1.395-3.111 3.111v21.778c0 1.716 1.395 3.111 3.111 3.111h21.778c1.716 0 3.111-1.395 3.111-3.111zM9.333 24.889h-3.111v-3.111h3.111v3.111zM9.333 18.667h-3.111v-3.111h3.111v3.111zM15.556 24.889h-3.111v-3.111h3.111v3.111zM15.556 18.667h-3.111v-3.111h3.111v3.111zM21.778 24.889h-3.111v-3.111h3.111v3.111zM21.778 18.667h-3.111v-3.111h3.111v3.111zM24.889 10.889h-21.778v-3.111h21.778v3.111z"></path>
</symbol>
<symbol id="icon-os" viewBox="0 0 35 32">
<path  d="M31.111 0h-28c-0.824 0.002-1.614 0.331-2.197 0.914s-0.911 1.373-0.914 2.197v18.667c0.002 0.824 0.331 1.614 0.914 2.197s1.373 0.911 2.197 0.914h10.889v3.111h-3.111v3.111h12.444v-3.111h-3.111v-3.111h10.889c0.824-0.003 1.614-0.331 2.197-0.914s0.911-1.373 0.914-2.197v-18.667c-0.003-0.824-0.331-1.614-0.914-2.197s-1.373-0.911-2.197-0.914zM15.17 18.147h-0.001l-7.389-7.389 2.201-2.198 5.189 5.189 9.077-9.078 2.201 2.201-11.278 11.275z"></path>
</symbol>
<symbol id="icon-language" viewBox="0 0 32 32">
<path  d="M15.556 31.111c-2.126 0-4.135-0.409-6.028-1.226-1.893-0.816-3.545-1.931-4.958-3.344-1.413-1.413-2.528-3.065-3.344-4.958-0.817-1.893-1.226-3.902-1.226-6.028 0-2.152 0.409-4.167 1.226-6.046 0.816-1.88 1.931-3.526 3.344-4.939 1.412-1.413 3.065-2.529 4.958-3.346 1.893-0.816 3.902-1.224 6.028-1.224 2.152 0 4.167 0.408 6.046 1.224 1.88 0.817 3.526 1.933 4.939 3.346 1.413 1.412 2.528 3.059 3.344 4.939 0.817 1.879 1.226 3.895 1.226 6.046 0 2.126-0.409 4.135-1.226 6.028-0.816 1.893-1.931 3.545-3.344 4.958s-3.059 2.528-4.939 3.344c-1.879 0.817-3.895 1.226-6.046 1.226zM15.556 27.922c0.674-0.933 1.257-1.906 1.75-2.917s0.894-2.087 1.205-3.228h-5.911c0.311 1.141 0.713 2.217 1.206 3.228s1.076 1.983 1.75 2.917zM11.511 27.3c-0.467-0.856-0.875-1.744-1.224-2.665-0.351-0.92-0.642-1.872-0.876-2.858h-4.589c0.752 1.296 1.691 2.424 2.819 3.383 1.128 0.959 2.418 1.672 3.87 2.139zM19.6 27.3c1.452-0.467 2.741-1.18 3.869-2.139 1.128-0.959 2.068-2.087 2.82-3.383h-4.589c-0.233 0.985-0.525 1.938-0.874 2.858-0.351 0.921-0.759 1.809-1.226 2.665zM3.5 18.667h5.289c-0.078-0.519-0.136-1.031-0.176-1.537-0.038-0.505-0.058-1.030-0.058-1.574s0.019-1.069 0.058-1.574c0.039-0.506 0.098-1.018 0.176-1.537h-5.289c-0.13 0.519-0.227 1.031-0.292 1.537-0.064 0.505-0.096 1.030-0.096 1.574s0.032 1.069 0.096 1.574c0.065 0.506 0.163 1.018 0.292 1.537zM11.9 18.667h7.311c0.078-0.519 0.136-1.031 0.176-1.537 0.038-0.505 0.057-1.030 0.057-1.574s-0.019-1.069-0.057-1.574c-0.039-0.506-0.098-1.018-0.176-1.537h-7.311c-0.078 0.519-0.136 1.031-0.174 1.537-0.039 0.505-0.059 1.030-0.059 1.574s0.020 1.069 0.059 1.574c0.038 0.506 0.096 1.018 0.174 1.537zM22.322 18.667h5.289c0.13-0.519 0.227-1.031 0.293-1.537 0.064-0.505 0.096-1.030 0.096-1.574s-0.032-1.069-0.096-1.574c-0.065-0.506-0.163-1.018-0.293-1.537h-5.289c0.078 0.519 0.136 1.031 0.174 1.537 0.039 0.505 0.059 1.030 0.059 1.574s-0.020 1.069-0.059 1.574c-0.038 0.506-0.096 1.018-0.174 1.537zM21.7 9.333h4.589c-0.752-1.296-1.692-2.424-2.82-3.383-1.127-0.959-2.417-1.672-3.869-2.139 0.467 0.856 0.875 1.743 1.226 2.663 0.349 0.921 0.641 1.874 0.874 2.859zM12.6 9.333h5.911c-0.311-1.141-0.713-2.217-1.205-3.228s-1.076-1.983-1.75-2.917c-0.674 0.933-1.257 1.906-1.75 2.917s-0.895 2.087-1.206 3.228zM4.822 9.333h4.589c0.233-0.985 0.525-1.938 0.876-2.859 0.349-0.92 0.758-1.808 1.224-2.663-1.452 0.467-2.742 1.18-3.87 2.139-1.127 0.959-2.067 2.087-2.819 3.383z"></path>
</symbol>
<symbol id="icon-size" viewBox="0 0 36 32">
<path  d="M30.024 24.059c-0.042 0.762-0.375 1.479-0.93 2.004s-1.289 0.817-2.052 0.817h-18.243c-0.763 0-1.498-0.292-2.053-0.817s-0.887-1.242-0.93-2.004l-1.161-20.907c-0.023-0.405 0.038-0.811 0.178-1.193s0.356-0.73 0.635-1.025c0.279-0.295 0.615-0.53 0.988-0.691s0.775-0.244 1.181-0.244h20.566c0.406-0 0.808 0.083 1.181 0.243s0.709 0.396 0.989 0.691c0.279 0.295 0.495 0.644 0.635 1.025s0.2 0.787 0.178 1.193l-1.162 20.907zM25.569 8.795c0.612-0.403 0.766-1.203 0.264-1.723-0.852-0.88-1.848-1.607-2.946-2.152-1.523-0.756-3.196-1.16-4.897-1.185-1.702-0.028-3.388 0.324-4.936 1.032-1.116 0.51-2.137 1.206-3.020 2.058-0.52 0.505-0.396 1.308 0.202 1.731l3.22 2.274c0.597 0.423 1.44 0.286 2.059-0.108 0.16-0.101 0.326-0.192 0.498-0.27 0.55-0.251 1.146-0.384 1.75-0.39l2.533-2.913c0.13-0.15 0.314-0.241 0.512-0.255 0.098-0.007 0.196 0.006 0.289 0.037s0.179 0.080 0.253 0.145 0.135 0.143 0.178 0.23c0.044 0.088 0.070 0.183 0.077 0.281s-0.006 0.196-0.037 0.289-0.080 0.179-0.145 0.253l-1.965 2.259c0.266 0.11 0.52 0.247 0.759 0.409 0.605 0.413 1.441 0.575 2.053 0.172l3.299-2.172z"></path>
</symbol>
<symbol id="icon-downloads" viewBox="0 0 32 32">
<path  d="M13.5 0h5c0.831 0 1.5 0.669 1.5 1.5v10.5h5.481c1.112 0 1.669 1.344 0.881 2.131l-9.506 9.513c-0.469 0.469-1.238 0.469-1.706 0l-9.519-9.513c-0.787-0.787-0.231-2.131 0.881-2.131h5.488v-10.5c0-0.831 0.669-1.5 1.5-1.5zM32 23.5v7c0 0.831-0.669 1.5-1.5 1.5h-29c-0.831 0-1.5-0.669-1.5-1.5v-7c0-0.831 0.669-1.5 1.5-1.5h9.169l3.062 3.063c1.256 1.256 3.281 1.256 4.538 0l3.062-3.063h9.169c0.831 0 1.5 0.669 1.5 1.5zM24.25 29c0-0.688-0.563-1.25-1.25-1.25s-1.25 0.563-1.25 1.25c0 0.688 0.563 1.25 1.25 1.25s1.25-0.563 1.25-1.25zM28.25 29c0-0.688-0.563-1.25-1.25-1.25s-1.25 0.563-1.25 1.25c0 0.688 0.563 1.25 1.25 1.25s1.25-0.563 1.25-1.25z"></path>
</symbol>
<symbol id="icon-arrow" viewBox="0 0 20 32">
<path  d="M0 26.585l11.077-11.077-11.077-11.077 2.215-4.431 15.508 15.508-15.508 15.508-2.215-4.431z"></path>
</symbol>
<symbol id="icon-android" viewBox="0 0 28 32">
<path d="M5.261 24.204c0 0.836 0.708 1.518 1.578 1.518h1.804v4.3c0 1.089 0.908 1.979 2.023 1.979 1.119 0 2.023-0.886 2.023-1.979v-4.303h3.149v4.3c0 1.089 0.908 1.979 2.023 1.979 1.119 0 2.023-0.886 2.023-1.979v-4.3h1.804c0.871 0 1.578-0.682 1.578-1.518v-14.114h-18.005v14.117zM18.49 2.773l1.663-2.321c0.096-0.136 0.074-0.318-0.056-0.407-0.13-0.086-0.315-0.043-0.411 0.093l-1.726 2.414c-1.137-0.432-2.404-0.671-3.734-0.671s-2.597 0.239-3.734 0.671l-1.726-2.411c-0.096-0.136-0.282-0.182-0.411-0.093-0.13 0.086-0.152 0.264-0.056 0.407l1.663 2.321c-2.645 1.186-4.497 3.432-4.735 6.057h18.005c-0.245-2.628-2.101-4.875-4.742-6.060zM10.425 6.433c-0.197 0-0.39-0.056-0.554-0.162s-0.292-0.256-0.367-0.431c-0.075-0.176-0.095-0.369-0.057-0.555s0.133-0.358 0.273-0.492 0.317-0.226 0.51-0.263c0.193-0.037 0.394-0.018 0.576 0.055s0.338 0.196 0.447 0.354 0.168 0.344 0.168 0.534c-0.001 0.255-0.106 0.499-0.293 0.679s-0.44 0.281-0.704 0.282zM18.145 6.433c-0.197 0-0.39-0.056-0.554-0.162s-0.292-0.256-0.367-0.431c-0.075-0.176-0.095-0.369-0.057-0.555s0.133-0.358 0.273-0.492 0.317-0.226 0.51-0.263c0.193-0.037 0.394-0.018 0.576 0.055s0.338 0.196 0.447 0.354 0.168 0.344 0.168 0.534c-0.001 0.255-0.106 0.499-0.293 0.679s-0.44 0.281-0.704 0.282zM26.422 10.030c-1.119 0-2.023 0.886-2.023 1.979v7.728c0 1.089 0.908 1.979 2.023 1.979 1.119 0 2.023-0.886 2.023-1.979v-7.732c0.004-1.093-0.9-1.975-2.023-1.975zM2.023 10.030c-1.119 0-2.023 0.886-2.023 1.979v7.728c0 1.089 0.908 1.979 2.023 1.979 1.119 0 2.023-0.886 2.023-1.979v-7.732c0-1.093-0.908-1.975-2.023-1.975z"></path>
</symbol>
<symbol id="icon-close" viewBox="0 0 32 32">
<path  d="M27.983 0.497l-12.614 12.614-12.614-12.614c-0.303-0.278-0.702-0.427-1.113-0.418s-0.803 0.176-1.094 0.467c-0.291 0.291-0.458 0.683-0.467 1.094s0.141 0.81 0.418 1.113l12.608 12.614-12.611 12.611c-0.154 0.147-0.277 0.323-0.362 0.518s-0.13 0.405-0.133 0.618c-0.003 0.213 0.037 0.424 0.117 0.621s0.199 0.376 0.349 0.527c0.15 0.151 0.329 0.27 0.526 0.35s0.408 0.121 0.621 0.118c0.213-0.002 0.423-0.047 0.618-0.132s0.372-0.208 0.519-0.362l12.618-12.611 12.614 12.614c0.303 0.278 0.702 0.428 1.113 0.419s0.803-0.177 1.094-0.467 0.458-0.682 0.467-1.094c0.009-0.411-0.141-0.81-0.418-1.113l-12.614-12.614 12.614-12.618c0.154-0.147 0.277-0.323 0.362-0.518s0.13-0.405 0.133-0.618c0.003-0.213-0.037-0.424-0.118-0.621s-0.199-0.376-0.349-0.527c-0.15-0.151-0.329-0.27-0.526-0.35s-0.408-0.121-0.621-0.118c-0.213 0.002-0.423 0.047-0.618 0.132s-0.372 0.208-0.519 0.362v0.003z"></path>
</symbol>
</defs>
</svg>
